# xmcd CD database file
#
# Track frame offsets:
#	150
#	28554
#	58281
#	94839
#	115656
#	135906
#	156993
#	182589
#	204837
#	233052
#	264507
#	275658
#	315942
#
# Disc length: 4717 seconds
#
# Revision: 1
# Processed by: cddbd v1.5.1PL2 Copyright (c) Steve Scherf et al.
# Submitted via: CDex 1.51
#
DISCID=a8126b0d
DTITLE=John Abercrombie - John Abercrombie's Best 1
DYEAR=1900
DGENRE=Jazz
TTITLE0=Invitation - Joe Henderson
TTITLE1=Just in Tune - John Abercrombie
TTITLE2=Soundtrack - John Abercrombie
TTITLE3=Backward Glance - John Abercrombie
TTITLE4=Upon a Time - John Abercrombie
TTITLE5=Ogeda - John Abercrombie
TTITLE6=John's Waltz - John Abercrombie
TTITLE7=Ralph's Piano Waltz - Traditional-John Abercrombie
TTITLE8=Ralph's Piano Waltz - Flamenco-John Abercrombie
TTITLE9=Ralph's Piano Waltz - Piano Rain- John Abercrombie
TTITLE10=Lisa - John Abercrombie
TTITLE11=Still - John Abercrombie
TTITLE12=Silver Hollow - Jack De Johnette
EXTD=
EXTT0=
EXTT1=
EXTT2=
EXTT3=
EXTT4=
EXTT5=
EXTT6=
EXTT7=
EXTT8=
EXTT9=
EXTT10=
EXTT11=
EXTT12=
PLAYORDER=
